<svg width="50" height="50" viewBox="0 0 50 50" fill="none" xmlns="http://www.w3.org/2000/svg">
<path fill-rule="evenodd" clip-rule="evenodd" d="M26.2274 9.58766C26.2274 8.71082 25.5165 8 24.6397 8C23.7629 8 23.0521 8.71082 23.0521 9.58766V12.5598C18.1589 12.9371 13.54 15.0491 10.0452 18.5439C6.17455 22.4145 4 27.6643 4 33.1383C4 34.0151 4.71082 34.7259 5.58766 34.7259H43.6914C44.1125 34.7259 44.5163 34.5586 44.8141 34.2609C45.1118 33.9632 45.2791 33.5593 45.2791 33.1383C45.2791 27.6643 43.1046 22.4145 39.2339 18.5439C35.7392 15.0492 31.1204 12.9372 26.2274 12.5598V9.58766ZM24.6395 15.674C20.0077 15.674 15.5657 17.514 12.2905 20.7892C9.39165 23.688 7.61711 27.501 7.24758 31.5506H42.0315C41.662 27.501 39.8875 23.688 36.9886 20.7892C33.7134 17.514 29.2713 15.674 24.6395 15.674ZM4 40.0178C4 39.141 4.71082 38.4301 5.58766 38.4301H43.6914C44.5683 38.4301 45.2791 39.141 45.2791 40.0178C45.2791 40.8946 44.5683 41.6055 43.6914 41.6055H5.58766C4.71082 41.6055 4 40.8946 4 40.0178Z" fill="#FF7575"/>
</svg>
