<svg width="71" height="72" viewBox="0 0 71 72" fill="none" xmlns="http://www.w3.org/2000/svg">
<path d="M60.3319 17.2805L57.9195 17.9366L57.9195 17.9366L60.3319 17.2805ZM57.8017 10.3681L59.8107 8.88014L59.8105 8.87994L57.8017 10.3681ZM53.7896 7.29563L54.7017 4.96799L54.7015 4.96791L53.7896 7.29563ZM10.6678 17.2805L13.0802 17.9366L13.0802 17.9366L10.6678 17.2805ZM13.198 10.3681L11.1891 8.88001L11.1891 8.88004L13.198 10.3681ZM17.2102 7.29563L16.2981 4.96794L16.2981 4.96794L17.2102 7.29563ZM23.3724 39.6672C23.3724 38.2865 22.2531 37.1672 20.8724 37.1672C19.4916 37.1672 18.3724 38.2865 18.3724 39.6672H23.3724ZM18.3724 54.334C18.3724 55.7147 19.4916 56.834 20.8724 56.834C22.2531 56.834 23.3724 55.7147 23.3724 54.334H18.3724ZM52.6252 39.6672C52.6252 38.2865 51.5059 37.1672 50.1252 37.1672C48.7445 37.1672 47.6252 38.2865 47.6252 39.6672H52.6252ZM47.6252 54.334C47.6252 55.7147 48.7445 56.834 50.1252 56.834C51.5059 56.834 52.6252 55.7147 52.6252 54.334H47.6252ZM37.9988 39.6672C37.9988 38.2865 36.8795 37.1672 35.4988 37.1672C34.1181 37.1672 32.9988 38.2865 32.9988 39.6672H37.9988ZM32.9988 54.334C32.9988 55.7147 34.1181 56.834 35.4988 56.834C36.8795 56.834 37.9988 55.7147 37.9988 54.334H32.9988ZM8.16872 51.7307C7.83465 50.391 6.47781 49.5758 5.13812 49.9098C3.79843 50.2439 2.98321 51.6007 3.31728 52.9404L8.16872 51.7307ZM11.7129 66.6702L10.1719 68.6388L10.1719 68.6388L11.7129 66.6702ZM65.2571 52.3356L67.6828 52.9405L67.6828 52.9404L65.2571 52.3356ZM66.6692 29.2302L64.6967 30.7662L64.6968 30.7663L66.6692 29.2302ZM4.33093 29.2302L6.30328 30.7664L6.30336 30.7662L4.33093 29.2302ZM0.420763 40.0562C0.636061 41.42 1.91619 42.3511 3.28001 42.1358C4.64384 41.9205 5.5749 40.6403 5.3596 39.2765L0.420763 40.0562ZM65.3424 26.1775L62.7442 16.6244L57.9195 17.9366L60.5177 27.4897L65.3424 26.1775ZM62.7442 16.6245C61.7988 13.1481 61.1862 10.7374 59.8107 8.88014L55.7927 11.8561C56.4719 12.773 56.8614 14.0458 57.9195 17.9366L62.7442 16.6245ZM59.8105 8.87994C58.5081 7.12183 56.7377 5.76586 54.7017 4.96799L52.8774 9.62327C54.038 10.0781 55.0486 10.8517 55.7929 11.8563L59.8105 8.87994ZM54.7015 4.96791C52.5495 4.12474 50.0648 4.16672 46.4719 4.16672V9.16672C50.4958 9.16672 51.8192 9.20869 52.8776 9.62335L54.7015 4.96791ZM10.482 27.4897L13.0802 17.9366L8.25544 16.6244L5.65725 26.1775L10.482 27.4897ZM13.0802 17.9366C14.1384 14.0456 14.5277 12.7731 15.2069 11.8562L11.1891 8.88004C9.81336 10.7373 9.20084 13.1483 8.25544 16.6245L13.0802 17.9366ZM15.2069 11.8562C15.951 10.8516 16.9616 10.0781 18.1222 9.62332L16.2981 4.96794C14.2618 5.76584 12.4915 7.12187 11.1891 8.88001L15.2069 11.8562ZM18.1222 9.62332C19.1804 9.2087 20.5038 9.16672 24.5277 9.16672V4.16672C20.935 4.16672 18.4501 4.12473 16.2981 4.96794L18.1222 9.62332ZM27.0259 6.66671C27.0259 6.01635 27.5501 5.5 28.1832 5.5V0.5C24.7766 0.5 22.0259 3.26696 22.0259 6.66671H27.0259ZM28.1832 5.5H42.8127V0.5H28.1832V5.5ZM42.8127 5.5C43.4459 5.5 43.97 6.01632 43.97 6.66671H48.97C48.97 3.267 46.2194 0.5 42.8127 0.5V5.5ZM43.97 6.66671C43.97 7.31709 43.4459 7.83341 42.8127 7.83341V12.8334C46.2194 12.8334 48.97 10.0664 48.97 6.66671H43.97ZM42.8127 7.83341H28.1832V12.8334H42.8127V7.83341ZM28.1832 7.83341C27.5501 7.83341 27.0259 7.31706 27.0259 6.66671H22.0259C22.0259 10.0664 24.7766 12.8334 28.1832 12.8334V7.83341ZM18.3724 39.6672V54.334H23.3724V39.6672H18.3724ZM47.6252 39.6672V54.334H52.6252V39.6672H47.6252ZM32.9988 39.6672V54.334H37.9988V39.6672H32.9988ZM3.31728 52.9404C4.30044 56.8832 5.08709 60.0549 6.02326 62.5185C6.98316 65.0445 8.19181 67.0888 10.1719 68.6388L13.2539 64.7016C12.2577 63.9218 11.4792 62.8004 10.6972 60.7424C9.89142 58.622 9.18127 55.7913 8.16872 51.7307L3.31728 52.9404ZM10.1719 68.6388C12.1526 70.1892 14.4258 70.8698 17.1053 71.191C19.7175 71.5042 22.9787 71.5 27.032 71.5V66.5C22.8567 66.5 19.9465 66.4958 17.7004 66.2265C15.5216 65.9653 14.2495 65.4809 13.2539 64.7016L10.1719 68.6388ZM27.032 71.5H43.9679V66.5H27.032V71.5ZM43.9679 71.5C48.0212 71.5 51.2825 71.5042 53.8947 71.191C56.5743 70.8698 58.8474 70.1892 60.8281 68.6388L57.7462 64.7016C56.7505 65.4809 55.4784 65.9653 53.2996 66.2265C51.0535 66.4958 48.1433 66.5 43.9679 66.5V71.5ZM60.8281 68.6388C62.8083 67.0888 64.0169 65.0445 64.9768 62.5185C65.9129 60.0549 66.6996 56.8832 67.6828 52.9405L62.8313 51.7306C61.8187 55.7913 61.1086 58.622 60.3028 60.7424C59.5208 62.8004 58.7424 63.9217 57.7462 64.7016L60.8281 68.6388ZM67.6828 52.9404C69.2326 46.725 70.4673 41.799 70.8624 37.9027C71.2641 33.9418 70.859 30.5413 68.6416 27.6941L64.6968 30.7663C65.7739 32.1494 66.2316 34.0098 65.8879 37.3982C65.5378 40.8512 64.4192 45.3627 62.8313 51.7307L67.6828 52.9404ZM68.6416 27.6941C66.4231 24.8453 63.2273 23.6248 59.2936 23.0542C55.4258 22.4933 50.3579 22.4995 43.9679 22.4995V27.4995C50.5159 27.4995 55.1513 27.5058 58.576 28.0025C61.9348 28.4896 63.6207 29.3844 64.6967 30.7662L68.6416 27.6941ZM43.9679 22.4995H27.032V27.4995H43.9679V22.4995ZM27.032 22.4995C20.6422 22.4995 15.5744 22.4933 11.7065 23.0542C7.77285 23.6248 4.57707 24.8453 2.3585 27.6941L6.30336 30.7662C7.37948 29.3844 9.06545 28.4896 12.4242 28.0025C15.8488 27.5058 20.4842 27.4995 27.032 27.4995V22.4995ZM2.35858 27.694C-0.244102 31.0357 -0.354985 35.1421 0.420763 40.0562L5.3596 39.2765C4.63269 34.6718 5.038 32.3909 6.30328 30.7664L2.35858 27.694Z" fill="#C3C3C3"/>
</svg>
