<svg width="101" height="101" viewBox="0 0 101 101" fill="none" xmlns="http://www.w3.org/2000/svg">
<path fill-rule="evenodd" clip-rule="evenodd" d="M64.4743 37.7999C64.4743 30.5201 58.4311 24.5999 51 24.5999C43.5689 24.5999 37.5257 30.5201 37.5257 37.7999C37.5257 45.0797 43.5689 50.9999 51 50.9999C58.4311 50.9999 64.4743 45.0797 64.4743 37.7999ZM77.221 83.9999H71.2115C69.352 83.9999 67.8429 82.5215 67.8429 80.6999C67.8429 78.8783 69.352 77.3999 71.2115 77.3999H72.6565C74.9876 77.3999 76.709 75.0997 75.8264 72.9844C71.7471 63.2032 62.1668 57.5999 51 57.5999C39.8332 57.5999 30.2529 63.2032 26.1736 72.9844C25.291 75.0997 27.0124 77.3999 29.3435 77.3999H30.7885C32.648 77.3999 34.1571 78.8783 34.1571 80.6999C34.1571 82.5215 32.648 83.9999 30.7885 83.9999H24.779C20.5683 83.9999 17.2536 80.2279 18.1463 76.1986C20.5986 65.1139 28.2554 56.9332 38.3409 53.2207C33.7394 49.594 30.7885 44.0369 30.7885 37.7999C30.7885 26.0816 41.1773 16.7426 53.422 18.1385C62.2948 19.1483 69.645 26.0749 70.9756 34.7308C72.1209 42.1921 69.005 49.0066 63.6591 53.2207C73.7446 56.9332 81.4014 65.1139 83.8537 76.1986C84.7464 80.2279 81.4317 83.9999 77.221 83.9999ZM61.1057 80.6999C61.1057 82.5215 59.5966 83.9999 57.7372 83.9999H44.2628C42.4034 83.9999 40.8943 82.5215 40.8943 80.6999C40.8943 78.8783 42.4034 77.3999 44.2628 77.3999H57.7372C59.5966 77.3999 61.1057 78.8783 61.1057 80.6999Z" fill="#C3C3C3"/>
</svg>
